# AST/ASF file generated using VICON BodyLanguage
# -----------------------------------------------
:version 1.10
:name VICON
:units
  mass 1.0
  length 0.45
  angle deg
:documentation
   .ast/.asf automatically generated from VICON data using
   VICON BodyBuilder and BodyLanguage model FoxedUp or BRILLIANT.MOD
:root
   order TX TY TZ RX RY RZ
   axis XYZ
   position 0 0 0  
   orientation 0 0 0 
:bonedata
  begin
     id 1 
     name lhipjoint
     direction 0.611804 -0.747784 0.257906 
     length 2.29243 
     axis 0 0 0  XYZ
  end
  begin
     id 2 
     name lfemur
     direction 0.34202 -0.939693 0  
     length 7.31159  
     axis 0 0 20  XYZ
    dof rx ry rz
    limits (-160.0 20.0)
           (-70.0 70.0)
           (-60.0 70.0)
  end
  begin
     id 3 
     name ltibia
     direction 0.34202 -0.939693 0   
     length 7.33391   
     axis 0 0 20   XYZ
    dof rx
    limits (-10.0 170.0)
  end
  begin
     id 4 
     name lfoot
     direction 0.122263 -0.335914 0.933924   
     length 1.76083   
     axis -90 7.62852e-016 20   XYZ
    dof rx rz
    limits (-45.0 90.0)
           (-70.0 20.0)
  end
  begin
     id 5 
     name ltoes
     direction 1.53533e-011 -4.2177e-011 1   
     length 0.879206   
     axis -90 7.62852e-016 20   XYZ
    dof rx
    limits (-90.0 20.0)
  end
  begin
     id 6 
     name rhipjoint
     direction -0.646469 -0.721248 0.248754   
     length 2.37677  
     axis 0 0 0  XYZ 
  end
  begin
     id 7 
     name rfemur
     direction -0.34202 -0.939693 0   
     length 7.18623   
     axis 0 0 -20   XYZ
    dof rx ry rz
    limits (-160.0 20.0)
           (-70.0 70.0)
           (-70.0 60.0)
  end
  begin
     id 8 
     name rtibia
     direction -0.34202 -0.939693 0   
     length 7.36567   
     axis 0 0 -20   XYZ
    dof rx
    limits (-10.0 170.0)
 end
 begin
     id 9 
     name rfoot
     direction -0.126681 -0.348054 0.928876   
     length 1.71902  
     axis -90 -7.62852e-016 -20   XYZ
    dof rx rz
    limits (-45.0 90.0)
           (-20.0 70.0)
  end
  begin
     id 10 
     name rtoes
     direction -1.53551e-011 -4.21898e-011 1   
     length 0.857792   
     axis -90 -7.62852e-016 -20   XYZ
    dof rx
    limits (-90.0 20.0)
  end
  begin
     id 11 
     name lowerback
     direction 0.0106509 0.999778 0.0181844   
     length 2.07668   
     axis 0 0 0   XYZ
    dof rx ry rz
    limits (-20.0 45.0)
           (-30.0 30.0)
           (-30.0 30.0)
  end
  begin
     id 12 
     name upperback
     direction -0.00456018 0.999989 -0.000590935   
     length 2.08011   
     axis 0 0 0   XYZ
    dof rx ry rz
    limits (-20.0 45.0)
           (-30.0 30.0)
           (-30.0 30.0)
  end
  begin
     id 13 
     name thorax
     direction -0.00910382 0.999916 -0.00923765   
     length 2.07397   
     axis 0 0 0   XYZ
    dof rx ry rz
    limits (-20.0 45.0)
           (-30.0 30.0)
           (-30.0 30.0)
  end
  begin
     id 14 
     name lowerneck
     direction 0.00171967 0.99778 0.0665733   
     length 1.67556   
     axis 0 0 0   XYZ
    dof rx ry rz
    limits (-20.0 45.0)
           (-30.0 30.0)
           (-30.0 30.0)
  end
  begin
     id 15 
     name upperneck
     direction -0.0143166 0.991302 -0.130828   
     length 1.68462   
     axis 0 0 0   XYZ
    dof rx ry rz
    limits (-20.0 45.0)
           (-30.0 30.0)
           (-30.0 30.0)
  end
  begin
     id 16
     name head
     direction -0.00606378 0.998665 -0.0512995  
     length 1.69269  
     axis 0 0 0   XYZ
    dof rx ry rz
    limits (-20.0 45.0)
           (-30.0 30.0)
           (-30.0 30.0)
  end
  begin
     id 17 
     name lclavicle
     direction 0.9638 0.179341 0.197297  
     length 4.12888  
     axis 0 0 0   XYZ
    dof ry rz
    limits (-20.0 10.0)
           (0.0 20.0)
  end
  begin
     id 18 
     name lhumerus
     direction 1 -4.48972e-011 -2.47351e-027   
     length 5.01834   
     axis -180 -30 -90   XYZ
    dof rx ry rz
    limits (-60.0 90.0)
           (-90.0 90.0)
           (-90.0 90.0)
  end
  begin
     id 19
     name lradius
     direction 1 -4.48965e-011 1.51591e-026   
     length 3.4869   
     axis -180 -30 -90   XYZ
    dof rx
    limits (-10.0 170.0)
  end
  begin
     id 20
     name lwrist
     direction 1 -4.48957e-011 2.70032e-026   
     length 1.74345   
     axis -1.81515e-014 90 90   XYZ
    dof ry
    limits (-180.0 0.0)
 end
  begin
     id 21 
     name lhand
     direction 1 -4.48951e-011 5.40064e-026   
     length 0.76799   
     axis -3.44607e-014 90 90   XYZ
    dof rx rz
    limits (-90.0 90.0)
           (-45.0 45.0)
  end
  begin
     id 22 
     name lfingers
     direction 1 -4.48971e-011 1.08013e-025   
     length 0.619174   
     axis -6.89214e-014 90 90   XYZ
    dof rx
    limits (0.0 90.0)
  end
  begin
     id 23
     name lthumb
     direction 0.707107 -6.34931e-011 0.707107   
     length 0.889013   
     axis -90 45 2.85299e-015   XYZ
    dof rx rz
    limits (-45.0 45.0)
           (-45.0 45.0)
  end
  begin
     id 24 
     name rclavicle
     direction -0.961409 0.252588 0.109054   
     length 4.04305  
     axis 0 0 0   XYZ 
    dof ry rz
    limits (-10.0 20.0)
           (-20.0 0.0)
  end
  begin
     id 25 
     name rhumerus
     direction -1 -4.4897e-011 1.33872e-017  
     length 4.70164   
     axis -180 30 90   XYZ
    dof rx ry rz
    limits (-90.0 60.0)
           (-90.0 90.0)
           (-90.0 90.0)
  end
  begin
     id 26 
     name rradius
     direction -1 -4.48954e-011 1.83844e-026   
     length 3.49911   
     axis -180 30 90   XYZ
    dof rx
    limits (-10.0 170.0)
  end
  begin
     id 27 
     name rwrist
     direction -1 -4.49008e-011 2.70032e-026   
     length 1.74955   
     axis -1.81515e-014 -90 -90   XYZ
    dof ry
    limits (-180.0 0.0)
  end
  begin
     id 28
     name rhand
     direction -1 -4.48916e-011 5.40064e-026   
     length 0.739335   
     axis -3.44607e-014 -90 -90   XYZ
    dof rx rz
    limits (-90.0 90.0)
           (-45.0 45.0)
  end
  begin
     id 29
     name rfingers
     direction -1 -4.48987e-011 1.08013e-025   
     length 0.596071   
     axis -6.89214e-014 -90 -90   XYZ
    dof rx
    limits (0.0 90.0)
  end
  begin
     id 30
     name rthumb
     direction -0.707107 -6.34935e-011 0.707107   
     length 0.855843   
     axis -90 -45 -2.85299e-015   XYZ
    dof rx rz
    limits (-45.0 45.0)
           (-45.0 45.0)
  end
:hierarchy
  begin
    root lhipjoint rhipjoint lowerback
    lhipjoint lfemur
    lfemur ltibia
    ltibia lfoot
    lfoot ltoes
    rhipjoint rfemur
    rfemur rtibia
    rtibia rfoot
    rfoot rtoes
    lowerback upperback
    upperback thorax
    thorax lowerneck lclavicle rclavicle
    lowerneck upperneck
    upperneck head
    lclavicle lhumerus
    lhumerus lradius
    lradius lwrist
    lwrist lhand lthumb
    lhand lfingers
    rclavicle rhumerus
    rhumerus rradius
    rradius rwrist
    rwrist rhand rthumb
    rhand rfingers
  end

#!OML:ASF I:\salsa\salsa 7_09\Patient 1\Session 1\dancermale.ASF
:FULLY-SPECIFIED
:DEGREES
907
root -0.506981 16.6305 6.21529 915.736 -42.7302 526.668
lowerback -6.74712 7.37505 -15.8849
upperback 3.95426 11.2924 2.46024
thorax 4.54806 4.97696 12.348
lowerneck -7.21094 12.7532 2.07386
upperneck 21.469 18.6158 -7.85652
head 8.8642 8.0212 -1.06477
rclavicle 7.85199e-014 -3.18055e-014
rhumerus -43.805 11.0701 -92.3548
rradius 112.053
rwrist -0.670793
rhand -46.4209 -8.07243
rfingers 7.12502
rthumb -19.1505 -37.1496
lclavicle 7.85199e-014 -3.18055e-014
lhumerus -8.42613 -3.24802 76.5173
lradius 60.3455
lwrist 30.9392
lhand 0.0831265 77.8251
lfingers 7.12502
lthumb 25.67 -466.114
rfemur -1.54277 -2.62405 13.5526
rtibia 38.1972
rfoot -21.7642 -15.7076
rtoes 5.13607
lfemur -25.0414 29.8142 -40.2433
ltibia 39.0293
lfoot -19.384 13.628
ltoes -16.1388
908
root -0.585066 16.6256 6.17955 914.352 -43.2625 527.18
lowerback -6.41457 7.97792 -14.8497
upperback 4.35162 11.9499 2.81862
thorax 4.69284 5.30463 12.1467
lowerneck -7.41647 12.5768 1.61431
upperneck 21.5945 18.4281 -7.69394
head 8.8729 7.90214 -0.955644
rclavicle -2.44505e-014 3.81667e-014
rhumerus -42.6354 10.9094 -91.6732
rradius 111.311
rwrist -1.55209
rhand -45.116 -7.64776
rfingers 7.12502
rthumb -17.8952 -36.8444
lclavicle -2.44505e-014 3.81667e-014
lhumerus -10.0395 -5.16668 75.7939
lradius 60.4675
lwrist 32.597
lhand 0.760469 78.2609
lfingers 7.12502
lthumb 26.3186 -466.455
rfemur -1.34171 -3.71777 12.992
rtibia 40.7044
rfoot -20.5033 -12.6862
rtoes 3.17817
lfemur -20.9042 27.7904 -38.8171
ltibia 34.6032
lfoot -19.5847 15.6131
ltoes -16.785
909
root -0.634124 16.6302 6.13277 913.682 -43.9487 527.548
lowerback -6.56433 8.38317 -14.2569
upperback 4.62198 12.4604 3.09541
thorax 4.96623 5.53821 12.1782
lowerneck -7.79966 12.3915 1.22813
upperneck 21.8072 18.2452 -7.57989
head 8.95802 7.77405 -0.856235
rclavicle -1.66979e-014 -2.38542e-014
rhumerus -40.9029 10.8489 -91.0446
rradius 110.15
rwrist -3.07623
rhand -43.8192 -7.17886
rfingers 7.12502
rthumb -16.6472 -36.485
lclavicle -1.66979e-014 -2.38542e-014
lhumerus -11.6816 -7.18399 75.2258
lradius 60.6535
lwrist 34.3713
lhand 1.42272 78.5479
lfingers 7.12502
lthumb 26.9524 -466.646
rfemur -2.51727 -5.21794 12.3063
rtibia 44.3895
rfoot -17.572 -9.58686
rtoes 2.60969
lfemur -18.27 24.9716 -37.9084
ltibia 31.6125
lfoot -20.7723 16.2877
ltoes -11.2433
910
root -0.655242 16.6494 6.07761 913.583 -44.8664 527.704
lowerback -6.91969 8.62163 -14.171
upperback 4.75876 12.8209 3.37638
thorax 5.16105 5.69241 12.5177
lowerneck -8.02443 12.1826 0.952976
upperneck 21.9098 18.0681 -7.79188
head 9.02315 7.63268 -0.888597
rclavicle 9.28324e-014 2.54444e-014
rhumerus -39.0164 10.7426 -90.295
rradius 108.836
rwrist -4.69463
rhand -42.3449 -6.46514
rfingers 7.12502
rthumb -15.2274 -35.8847
lclavicle 9.28324e-014 2.54444e-014
lhumerus -13.3864 -9.41937 75.0702
lradius 60.9765
lwrist 36.3249
lhand 1.86258 78.6742
lfingers 7.12502
lthumb 27.3732 -466.706
rfemur -4.7676 -6.88422 11.4653
rtibia 48.7504
rfoot -13.0025 -6.20719
rtoes 5.42335
lfemur -16.9678 21.8721 -37.4866
ltibia 29.8055
lfoot -20.8961 17.3372
ltoes -7.78279
911
root -0.66462 16.6761 6.03274 913.449 -46.1303 528.147
lowerback -7.08406 8.76139 -13.7727
upperback 4.78223 12.9754 3.67263
thorax 5.23985 5.77569 12.6619
lowerneck -8.17493 11.9784 0.6495
upperneck 21.9572 17.8971 -8.02337
head 9.05584 7.49521 -0.929249
rclavicle -4.57205e-014 -3.02153e-014
rhumerus -37.1486 10.5465 -89.4936
rradius 107.461
rwrist -5.58214
rhand -40.5914 -6.14715
rfingers 7.12502
rthumb -13.5378 -35.6871
lclavicle -4.57205e-014 -3.02153e-014
lhumerus -15.2714 -11.7789 75.3374
lradius 61.4623
lwrist 38.3821
lhand 2.07449 78.6262
lfingers 7.12502
lthumb 27.5758 -466.626
rfemur -7.38132 -8.13531 11.0107
rtibia 52.9792
rfoot -8.48212 -2.94855
rtoes 7.54251
lfemur -16.4568 19.0809 -36.9135
ltibia 28.8371
lfoot -20.3282 18.2217
ltoes -5.36413
912
root -0.665751 16.7093 6.00024 913.926 -47.6587 527.833
lowerback -6.99716 8.81665 -13.74
upperback 4.78687 13.0269 3.78781
thorax 5.15875 5.81056 12.7501
lowerneck -8.43268 11.75 0.204787
upperneck 21.9819 17.6593 -7.97641
head 9.05496 7.34568 -0.862221
rclavicle 1.1947e-013 3.18055e-015
rhumerus -35.2455 10.349 -88.7383
rradius 105.935
rwrist -6.30445
rhand -39.3614 -5.87799
rfingers 7.12502
rthumb -12.3521 -35.4931
lclavicle 1.1947e-013 3.18055e-015
lhumerus -17.2779 -14.0728 76.1232
lradius 62.2136
lwrist 40.1618
lhand 1.99742 78.8556
lfingers 7.12502
lthumb 27.5021 -466.867
rfemur -10.2053 -9.75916 9.95538
rtibia 57.4285
rfoot -3.81288 0.0428137
rtoes 13.171
lfemur -16.4338 16.5179 -36.9248
ltibia 28.6262
lfoot -19.9809 18.7698
ltoes -3.48773
